<svg width="32" height="32" viewBox="0 0 32 32" fill="none" xmlns="http://www.w3.org/2000/svg">
<g clip-path="url(#clip0_114_648)">
<path d="M24.4822 10.8772C24.2758 10.677 23.9863 10.5861 23.7031 10.6326C23.4192 10.6789 23.1741 10.8567 23.0425 11.112C22.5897 11.99 22.0145 12.7969 21.3379 13.5102C21.4053 12.9949 21.4393 12.4766 21.4393 11.9568C21.4393 10.9596 21.3054 9.93334 21.0411 8.90626C20.1724 5.5327 17.8945 2.67973 14.7916 1.07892C14.5214 0.939592 14.1995 0.944484 13.9337 1.09196C13.668 1.2395 13.4939 1.50999 13.47 1.81256C13.2282 4.8783 11.6461 7.66744 9.12717 9.46664C9.09383 9.49061 9.06073 9.51489 9.02764 9.53905C8.95909 9.58911 8.89447 9.63646 8.83409 9.6762C8.82465 9.68248 8.81527 9.68888 8.80607 9.69546C7.22185 10.8276 5.91467 12.3368 5.0257 14.0604C4.12238 15.8135 3.66437 17.6947 3.66437 19.6517C3.66437 20.6487 3.79826 21.6749 4.06236 22.7022C5.45606 28.1168 10.3377 31.8984 15.9337 31.8984C22.6986 31.8984 28.2023 26.4045 28.2023 19.6517C28.2023 16.3217 26.8811 13.2055 24.4822 10.8772Z" fill="#FB9400"/>
<ellipse cx="15.0222" cy="19.1664" rx="3.64444" ry="3.63773" fill="white"/>
</g>
<defs>
<clipPath id="clip0_114_648">
<rect width="30.9778" height="30.9207" fill="white" transform="translate(0.444458 0.977783)"/>
</clipPath>
</defs>
</svg>
