<svg width="229" height="168" viewBox="0 0 229 168" fill="none" xmlns="http://www.w3.org/2000/svg">
<path d="M86.9736 129.979L28.7796 109.658C19.2723 106.338 12.9654 97.0667 12.9584 86.3941L12.9515 74.019L121.549 111.941L113.837 121.62C107.188 129.969 96.4809 133.299 86.9736 129.979Z" fill="#E57B07" stroke="#070707" stroke-width="2.26667" stroke-linecap="round" stroke-linejoin="round"/>
<path d="M124.403 107.962L13.1912 69.1277C11.9985 68.7112 10.6941 69.3404 10.2776 70.5331L10.2362 70.6515C9.81978 71.8441 10.449 73.1486 11.6417 73.5651L122.854 112.4C124.046 112.816 125.351 112.187 125.767 110.994L125.809 110.876C126.225 109.683 125.596 108.379 124.403 107.962Z" fill="#E57B07" stroke="#070707" stroke-width="2.26667" stroke-linecap="round" stroke-linejoin="round"/>
<path d="M158.614 129.114L118.995 115.279L121.649 111.975L159.931 125.343L158.614 129.114Z" fill="#E57B07" stroke="#070707" stroke-width="2.26667" stroke-linecap="round" stroke-linejoin="round"/>
<path d="M200.87 136.776L163.77 123.82C161.773 123.123 159.59 124.177 158.893 126.173L158.625 126.939C157.928 128.936 158.981 131.119 160.977 131.816L198.078 144.772C200.075 145.469 202.258 144.416 202.955 142.419L203.223 141.653C203.92 139.656 202.867 137.473 200.87 136.776Z" fill="#E57B07" stroke="#070707" stroke-width="2.26667" stroke-linecap="round" stroke-linejoin="round"/>
<path d="M81.387 18.3552C63.1746 18.5787 66.0857 29.6151 52.4062 39.5849C47.5151 43.1491 46.3528 48.3999 47.5433 51.3084C48.7972 54.3753 49.0012 59.4879 62.4244 63.5984C75.7165 67.6735 83.6555 60.7371 97.293 63.4225C102.072 64.3641 107.766 65.0379 111.128 61.5167C113.536 58.9976 113.827 55.1489 113.554 51.6762C113.033 45.0089 110.839 38.3482 106.555 33.2131C101.279 26.8885 95.4451 18.1843 81.387 18.3552Z" fill="#F7F3EF" stroke="#070707" stroke-width="2.26667" stroke-linecap="round" stroke-linejoin="round"/>
<path d="M79.4997 51.493C84.7625 53.3308 90.5186 50.5542 92.3563 45.2914C94.1941 40.0286 91.4175 34.2724 86.1547 32.4347C80.8919 30.597 75.1358 33.3735 73.298 38.6363C71.4603 43.8991 74.2369 49.6553 79.4997 51.493Z" fill="#EFAF00" stroke="black" stroke-width="2.26667" stroke-linecap="round" stroke-linejoin="round"/>
<path d="M73.8491 70.6085L68.9611 84.6062" stroke="#070707" stroke-width="2.26667" stroke-linecap="round" stroke-linejoin="round"/>
<path d="M82.0226 67.5157L77.1336 81.5165" stroke="#070707" stroke-width="2.26667" stroke-linecap="round" stroke-linejoin="round"/>
<path d="M87.6364 71.2031L82.7484 85.2008" stroke="#070707" stroke-width="2.26667" stroke-linecap="round" stroke-linejoin="round"/>
<path d="M100.404 76.2906C100.93 76.4745 101.506 76.1967 101.69 75.6701C101.874 75.1435 101.596 74.5675 101.07 74.3836C100.543 74.1997 99.967 74.4775 99.7831 75.0041C99.5992 75.5308 99.877 76.1068 100.404 76.2906Z" fill="#F7F3EF" stroke="#070707" stroke-width="2.26667" stroke-linecap="round" stroke-linejoin="round"/>
<path d="M56.4049 74.9494C57.3033 75.2631 58.2858 74.7892 58.5996 73.8908C58.9133 72.9925 58.4393 72.0099 57.5409 71.6962C56.6426 71.3825 55.66 71.8564 55.3463 72.7548C55.0326 73.6532 55.5066 74.6357 56.4049 74.9494Z" fill="#F7F3EF" stroke="#070707" stroke-width="2.26667" stroke-linecap="round" stroke-linejoin="round"/>
</svg>
